:FULLY-SPECIFIED
:FORCE-ALL-JOINTS-BE-3DOF
:DEGREES
1427
root -2.08822 13.7094 12.6893 366.659 27.3583 366.554
lfemur 25.512 -0.26548 -10.2936
ltibia 17.0271 0 0
lfoot -15.7236 34.5936 0
ltoes -24.3938 0 0
rfemur -65.6287 -21.3808 12.1253
rtibia 74.1572 0 0
rfoot -9.20038 10.2647 0
rtoes 4.65185 0 0
lowerback 10.25 2.02294 -10.2653
upperback -3.36184 1.19553 -0.957955
thorax -9.65525 1.1628 4.51856
lowerneck -0.0135629 -11.6599 -10.5312
upperneck 6.15118 -16.0416 9.64607
head 3.4627 -7.97469 3.87553
lclavicle 7.27277e-15 -2.53727e-14 0
lhumerus -73.806 -18.1006 104.358
lradius 100.841 0 0
lwrist 58.4045 0 0
lhand -9.71581 41.5847 0
lfingers 7.12502 0 0
lthumb 16.2666 -289.134 0
rclavicle 7.84901e-14 6.10711e-15 0
rhumerus 63.1494 -13.9682 -27.8784
rradius 82.1445 0 0
rwrist 26.8092 0 0
rhand -43.8474 -31.0383 0
rfingers 7.12502 0 0
rthumb -16.6901 -60.4604 0
1428
root -2.09095 13.7089 12.6884 366.659 27.3319 366.513
lfemur 25.4032 -0.233571 -10.3084
ltibia 17.0709 0 0
lfoot -15.7237 34.6031 0
ltoes -24.4278 0 0
rfemur -65.676 -21.4179 12.1446
rtibia 74.1679 0 0
rfoot -9.2047 10.304 0
rtoes 4.74984 0 0
lowerback 10.2162 2.0162 -10.2186
upperback -3.35863 1.19929 -0.936888
thorax -9.63094 1.16138 4.51537
lowerneck -0.0300741 -11.654 -10.5376
upperneck 6.13933 -16.0295 9.62413
head 3.4593 -7.96907 3.87025
lclavicle 8.70153e-15 -2.52346e-14 0
lhumerus -73.8148 -18.1288 104.38
lradius 100.814 0 0
lwrist 58.4124 0 0
lhand -9.72187 41.5413 0
lfingers 7.12502 0 0
lthumb 16.2626 -289.188 0
rclavicle 8.30602e-14 6.26172e-15 0
rhumerus 63.12 -13.9676 -27.8517
rradius 82.1904 0 0
rwrist 26.7905 0 0
rhand -43.8184 -31.0575 0
rfingers 7.12502 0 0
rthumb -16.6828 -60.4622 0
1429
root -2.09385 13.7096 12.6875 366.657 27.29 366.479
lfemur 25.2944 -0.201661 -10.3232
ltibia 17.1148 0 0
lfoot -15.7239 34.6125 0
ltoes -24.4617 0 0
rfemur -65.7232 -21.455 12.1639
rtibia 74.1786 0 0
rfoot -9.20902 10.3433 0
rtoes 4.84782 0 0
lowerback 10.1998 2.00932 -10.193
upperback -3.36437 1.19648 -0.923438
thorax -9.62655 1.15899 4.51646
lowerneck -0.0430407 -11.652 -10.4902
upperneck 6.15585 -16.0225 9.56096
head 3.45668 -7.96576 3.84452
lclavicle 1.01303e-14 -2.50966e-14 0
lhumerus -73.8235 -18.157 104.403
lradius 100.788 0 0
lwrist 58.4203 0 0
lhand -9.72792 41.498 0
lfingers 7.12502 0 0
lthumb 16.2586 -289.242 0
rclavicle 7.90479e-14 7.11129e-15 0
rhumerus 63.0905 -13.967 -27.825
rradius 82.2363 0 0
rwrist 26.7383 0 0
rhand -43.7894 -31.0767 0
rfingers 7.12502 0 0
rthumb -16.6755 -60.4641 0
1430
root -2.09957 13.7123 12.6833 366.635 27.195 366.258
lfemur 25.1856 -0.169752 -10.338
ltibia 17.3825 0 0
lfoot -15.7241 34.622 0
ltoes -24.4957 0 0
rfemur -65.7704 -21.492 12.1831
rtibia 74.1893 0 0
rfoot -9.21334 10.3826 0
rtoes 4.94581 0 0
lowerback 10.1946 2.03343 -10.0057
upperback -3.40441 1.25676 -0.878786
thorax -9.67137 1.18165 4.44794
lowerneck -0.030902 -11.6484 -10.4985
upperneck 6.11941 -16.0195 9.60289
head 3.44755 -7.96398 3.85995
lclavicle 1.1054e-14 -2.45098e-14 0
lhumerus -73.8323 -18.1851 104.426
lradius 100.77 0 0
lwrist 58.4282 0 0
lhand -9.73398 41.4547 0
lfingers 7.12502 0 0
lthumb 16.2546 -289.296 0
rclavicle 7.50355e-14 7.96085e-15 0
rhumerus 63.0611 -13.9664 -27.7983
rradius 82.2822 0 0
rwrist 26.6861 0 0
rhand -43.7605 -31.0958 0
rfingers 7.12502 0 0
rthumb -16.6682 -60.4659 0
1431
root -2.10052 13.7102 12.6851 366.674 27.2085 366.442
lfemur 25.0768 -0.137842 -10.3528
ltibia 17.6503 0 0
lfoot -15.7243 34.6314 0
ltoes -24.5297 0 0
rfemur -65.8177 -21.5291 12.2024
rtibia 74.1999 0 0
rfoot -9.21766 10.4219 0
rtoes 5.0438 0 0
lowerback 10.1973 2.01609 -10.1603
upperback -3.36448 1.21119 -0.913604
thorax -9.62651 1.16443 4.50606
lowerneck -0.0623379 -11.6446 -10.4538
upperneck 6.08184 -16.0078 9.5764
head 3.43442 -7.95734 3.84603
lclavicle 1.19778e-14 -2.3923e-14 0
lhumerus -73.841 -18.2133 104.449
lradius 100.752 0 0
lwrist 58.4362 0 0
lhand -9.74004 41.4114 0
lfingers 7.12502 0 0
lthumb 16.2506 -289.35 0
rclavicle 7.10232e-14 8.81042e-15 0
rhumerus 63.0316 -13.9658 -27.7715
rradius 82.3281 0 0
rwrist 26.6339 0 0
rhand -43.7315 -31.115 0
rfingers 7.12502 0 0
rthumb -16.6608 -60.4678 0
1432
root -2.10507 13.7133 12.6811 366.687 27.1164 366.337
lfemur 24.968 -0.105933 -10.3676
ltibia 17.918 0 0
lfoot -15.7244 34.6409 0
ltoes -24.5637 0 0
rfemur -65.8649 -21.5661 12.2216
rtibia 74.2106 0 0
rfoot -9.22198 10.4612 0
rtoes 5.14178 0 0
lowerback 10.1999 2.02562 -10.0784
upperback -3.39853 1.23491 -0.889731
thorax -9.6672 1.17475 4.48096
lowerneck -0.0769358 -11.6496 -10.4778
upperneck 6.09649 -16.0156 9.59648
head 3.44555 -7.96061 3.85322
lclavicle 1.29015e-14 -2.33362e-14 0
lhumerus -73.8498 -18.2414 104.472
lradius 100.734 0 0
lwrist 58.4441 0 0
lhand -9.74609 41.3681 0
lfingers 7.12502 0 0
lthumb 16.2466 -289.405 0
rclavicle 6.70108e-14 9.65998e-15 0
rhumerus 63.0022 -13.9652 -27.7448
rradius 82.374 0 0
rwrist 26.5817 0 0
rhand -43.7025 -31.1341 0
rfingers 7.12502 0 0
rthumb -16.6535 -60.4696 0
1433
root -2.10737 13.7097 12.6837 366.694 27.1176 366.483
lfemur 24.8592 -0.0740234 -10.3824
ltibia 18.1858 0 0
lfoot -15.7246 34.6503 0
ltoes -24.5977 0 0
rfemur -65.9121 -21.6032 12.2409
rtibia 74.2213 0 0
rfoot -9.2263 10.5005 0
rtoes 5.23977 0 0
lowerback 10.2167 2.02758 -10.2089
upperback -3.36262 1.21697 -0.918938
thorax -9.63864 1.17038 4.52601
lowerneck -0.0624861 -11.6602 -10.4676
upperneck 6.04953 -16.0288 9.60364
head 3.43018 -7.96754 3.8551
lclavicle 1.38253e-14 -2.27494e-14 0
lhumerus -73.8585 -18.2696 104.495
lradius 100.716 0 0
lwrist 58.452 0 0
lhand -9.75215 41.3248 0
lfingers 7.12502 0 0
lthumb 16.2426 -289.459 0
rclavicle 6.29985e-14 1.05095e-14 0
rhumerus 62.9727 -13.9646 -27.7181
rradius 82.4199 0 0
rwrist 26.5295 0 0
rhand -43.6735 -31.1532 0
rfingers 7.12502 0 0
rthumb -16.6462 -60.4715 0
1434
root -2.11154 13.7089 12.6832 366.732 27.0886 366.537
lfemur 24.7504 -0.0421139 -10.3972
ltibia 18.4535 0 0
lfoot -15.7248 34.6598 0
ltoes -24.6317 0 0
rfemur -65.9594 -21.6403 12.2602
rtibia 74.232 0 0
rfoot -9.23062 10.5398 0
rtoes 5.33776 0 0
lowerback 10.2265 2.01719 -10.2723
upperback -3.36805 1.19223 -0.923916
thorax -9.64893 1.16278 4.56053
lowerneck -0.0669102 -11.6413 -10.4433
upperneck 6.0258 -16.0022 9.60866
head 3.41955 -7.95381 3.85574
lclavicle 1.4749e-14 -2.21626e-14 0
lhumerus -73.8673 -18.2978 104.518
lradius 100.698 0 0
lwrist 58.4599 0 0
lhand -9.7582 41.2815 0
lfingers 7.12502 0 0
lthumb 16.2386 -289.513 0
rclavicle 5.89862e-14 1.13591e-14 0
rhumerus 62.9433 -13.964 -27.6914
rradius 82.4658 0 0
rwrist 26.4772 0 0
rhand -43.6446 -31.1724 0
rfingers 7.12502 0 0
rthumb -16.6389 -60.4733 0
1435
root -2.11593 13.7087 12.683 366.775 27.0804 366.6
lfemur 24.6416 -0.0102045 -10.412
ltibia 18.7213 0 0
lfoot -15.725 34.6692 0
ltoes -24.6656 0 0
rfemur -66.0066 -21.6773 12.2794
rtibia 74.2427 0 0
rfoot -9.12376 10.495 0
rtoes 5.43575 0 0
lowerback 10.2168 2.00531 -10.349
upperback -3.36168 1.16684 -0.929043
thorax -9.63494 1.15417 4.60306
lowerneck -0.0267845 -11.6299 -10.4396
upperneck 5.9521 -15.9881 9.64396
head 3.39206 -7.94761 3.87135
lclavicle 1.56727e-14 -2.15758e-14 0
lhumerus -73.876 -18.3259 104.54
lradius 100.68 0 0
lwrist 58.4678 0 0
lhand -9.76426 41.2382 0
lfingers 7.12502 0 0
lthumb 16.2347 -289.567 0
rclavicle 5.49738e-14 1.22087e-14 0
rhumerus 62.9138 -13.9634 -27.6647
rradius 82.5117 0 0
rwrist 26.425 0 0
rhand -43.6156 -31.1915 0
rfingers 7.12502 0 0
rthumb -16.6316 -60.4752 0
1436
root -2.11972 13.7091 12.6808 366.829 27.1005 366.674
lfemur 24.5328 0.021705 -10.4268
ltibia 18.989 0 0
lfoot -15.7251 34.6787 0
ltoes -24.6996 0 0
rfemur -66.0538 -21.7144 12.2987
rtibia 74.2345 0 0
rfoot -9.0169 10.4501 0
rtoes 5.53373 0 0
lowerback 10.2353 1.98466 -10.3946
upperback -3.37128 1.12825 -0.948374
thorax -9.65157 1.13879 4.61446
lowerneck -0.0372435 -11.6403 -10.4317
upperneck 5.96783 -16.0014 9.62987
head 3.39804 -7.95398 3.86395
lclavicle 1.65965e-14 -2.0989e-14 0
lhumerus -73.8848 -18.3541 104.563
lradius 100.662 0 0
lwrist 58.4757 0 0
lhand -9.77032 41.1949 0
lfingers 7.12502 0 0
lthumb 16.2307 -289.621 0
rclavicle 5.09615e-14 1.30582e-14 0
rhumerus 62.8843 -13.9628 -27.638
rradius 82.5575 0 0
rwrist 26.3728 0 0
rhand -43.5866 -31.2107 0
rfingers 7.12502 0 0
rthumb -16.6242 -60.477 0
1437
root -2.12415 13.7078 12.6792 366.916 27.0776 366.783
lfemur 24.424 0.0536144 -10.4416
ltibia 19.2568 0 0
lfoot -15.7253 34.6881 0
ltoes -24.7336 0 0
rfemur -66.1011 -21.7514 12.3179
rtibia 74.2264 0 0
rfoot -8.91003 10.4053 0
rtoes 5.63172 0 0
lowerback 10.2402 1.99356 -10.4916
upperback -3.38458 1.12317 -0.971595
thorax -9.67185 1.14279 4.64399
lowerneck -0.0533243 -11.6602 -10.4309
upperneck 5.9789 -16.0258 9.60647
head 3.40446 -7.96605 3.85371
lclavicle 1.75202e-14 -2.04022e-14 0
lhumerus -73.8935 -18.3822 104.586
lradius 100.644 0 0
lwrist 58.4836 0 0
lhand -9.77637 41.1516 0
lfingers 7.12502 0 0
lthumb 16.2267 -289.675 0
rclavicle 4.69491e-14 1.39078e-14 0
rhumerus 62.8549 -13.9622 -27.6113
rradius 82.6034 0 0
rwrist 26.3206 0 0
rhand -43.5577 -31.2298 0
rfingers 7.12502 0 0
rthumb -16.6169 -60.4789 0
1438
root -2.12695 13.7071 12.679 366.99 27.0753 366.903
lfemur 24.3152 0.0855238 -10.4564
ltibia 19.5245 0 0
lfoot -15.7255 34.6975 0
ltoes -24.7676 0 0
rfemur -66.1483 -21.7885 12.3372
rtibia 74.2182 0 0
rfoot -8.80317 10.3605 0
rtoes 5.72971 0 0
lowerback 10.2213 1.9838 -10.5795
upperback -3.38339 1.0976 -1.00516
thorax -9.65778 1.13396 4.6618
lowerneck -0.0190348 -11.653 -10.4538
upperneck 5.94041 -16.0209 9.66899
head 3.3938 -7.96381 3.87881
lclavicle 1.84439e-14 -1.98154e-14 0
lhumerus -73.9023 -18.4104 104.609
lradius 100.626 0 0
lwrist 58.4915 0 0
lhand -9.78243 41.1082 0
lfingers 7.12502 0 0
lthumb 16.2227 -289.73 0
rclavicle 4.29368e-14 1.47574e-14 0
rhumerus 62.8254 -13.9616 -27.5846
rradius 82.6493 0 0
rwrist 26.2684 0 0
rhand -43.5287 -31.249 0
rfingers 7.12502 0 0
rthumb -16.6096 -60.4807 0
